<?xml version="1.0" encoding="UTF-8" standalone="no"?>
<!-- Created with Inkscape (http://www.inkscape.org/) -->

<svg
   width="256"
   height="256"
   viewBox="0 0 67.73333 67.733335"
   version="1.1"
   id="svg1"
   inkscape:export-filename="image.png"
   inkscape:export-xdpi="96"
   inkscape:export-ydpi="96"
   inkscape:version="1.3.2 (091e20e, 2023-11-25, custom)"
   sodipodi:docname="prodmap.svg"
   xmlns:inkscape="http://www.inkscape.org/namespaces/inkscape"
   xmlns:sodipodi="http://sodipodi.sourceforge.net/DTD/sodipodi-0.dtd"
   xmlns="http://www.w3.org/2000/svg"
   xmlns:svg="http://www.w3.org/2000/svg">
  <sodipodi:namedview
     id="namedview1"
     pagecolor="#505050"
     bordercolor="#eeeeee"
     borderopacity="1"
     inkscape:showpageshadow="0"
     inkscape:pageopacity="0"
     inkscape:pagecheckerboard="0"
     inkscape:deskcolor="#505050"
     inkscape:document-units="px"
     inkscape:zoom="3.1757812"
     inkscape:cx="127.84256"
     inkscape:cy="128"
     inkscape:window-width="1920"
     inkscape:window-height="1009"
     inkscape:window-x="-8"
     inkscape:window-y="-8"
     inkscape:window-maximized="1"
     inkscape:current-layer="layer3" />
  <defs
     id="defs1">
    <filter
       style="color-interpolation-filters:sRGB"
       inkscape:label="Drop Shadow"
       id="filter78"
       x="-0.3023622"
       y="-0.3023622"
       width="1.7307087"
       height="1.7307087">
      <feFlood
         result="flood"
         in="SourceGraphic"
         flood-opacity="0.498039"
         flood-color="rgb(0,0,0)"
         id="feFlood77" />
      <feGaussianBlur
         result="blur"
         in="SourceGraphic"
         stdDeviation="5.000000"
         id="feGaussianBlur77" />
      <feOffset
         result="offset"
         in="blur"
         dx="5.000000"
         dy="5.000000"
         id="feOffset77" />
      <feComposite
         result="comp1"
         operator="out"
         in="flood"
         in2="offset"
         id="feComposite77" />
      <feComposite
         result="comp2"
         operator="atop"
         in="comp1"
         in2="SourceGraphic"
         id="feComposite78" />
    </filter>
    <filter
       style="color-interpolation-filters:sRGB"
       inkscape:label="Drop Shadow"
       id="filter2"
       x="-0.044307444"
       y="-0.017817103"
       width="1.1070763"
       height="1.043058">
      <feFlood
         result="flood"
         in="SourceGraphic"
         flood-opacity="0.498039"
         flood-color="rgb(0,0,0)"
         id="feFlood1" />
      <feGaussianBlur
         result="blur"
         in="SourceGraphic"
         stdDeviation="5.000000"
         id="feGaussianBlur1" />
      <feOffset
         result="offset"
         in="blur"
         dx="5.000000"
         dy="5.000000"
         id="feOffset1" />
      <feComposite
         result="comp1"
         operator="out"
         in="flood"
         in2="offset"
         id="feComposite1" />
      <feComposite
         result="comp2"
         operator="atop"
         in="comp1"
         in2="SourceGraphic"
         id="feComposite2" />
    </filter>
    <filter
       style="color-interpolation-filters:sRGB"
       inkscape:label="Drop Shadow"
       id="filter4"
       x="-0.044361823"
       y="-0.022168672"
       width="1.1072077"
       height="1.0535743">
      <feFlood
         result="flood"
         in="SourceGraphic"
         flood-opacity="0.498039"
         flood-color="rgb(0,0,0)"
         id="feFlood2" />
      <feGaussianBlur
         result="blur"
         in="SourceGraphic"
         stdDeviation="5.000000"
         id="feGaussianBlur2" />
      <feOffset
         result="offset"
         in="blur"
         dx="5.000000"
         dy="5.000000"
         id="feOffset2" />
      <feComposite
         result="comp1"
         operator="out"
         in="flood"
         in2="offset"
         id="feComposite3" />
      <feComposite
         result="comp2"
         operator="atop"
         in="comp1"
         in2="SourceGraphic"
         id="feComposite4" />
    </filter>
  </defs>
  <g
     inkscape:groupmode="layer"
     id="layer3"
     inkscape:label="icon"
     transform="scale(0.50000002)">
    <circle
       style="fill:#009b4d;fill-opacity:1;stroke-width:0.0734806"
       id="path4"
       cx="67.73333"
       cy="67.73333"
       r="67.73333" />
    <g
       inkscape:label="inset"
       inkscape:groupmode="layer"
       id="layer1"
       transform="matrix(0.82131156,0,0,0.82131156,23.474263,11.995426)">
      <g
         inkscape:label="marker"
         inkscape:groupmode="layer"
         id="layer1-2"
         transform="matrix(0.34313726,0,0,0.34313726,54.718248,85.574792)">
        <path
           style="fill:#ffcc00;fill-opacity:1;stroke:none;stroke-width:0.0661458;stroke-opacity:1"
           d="m 67.733332,0.264585 c -22.489585,0 -44.97917,17.076678 -44.979167,44.979164 0,33.734383 33.734376,56.223951 44.979167,89.958331 C 78.978123,101.4677 112.7125,78.978132 112.7125,45.243749 112.7125,17.217899 90.222903,0.264585 67.733332,0.264585 Z"
           id="path61"
           sodipodi:nodetypes="ccccc" />
        <circle
           style="fill:#faf5e9;fill-opacity:1;stroke:none;stroke-width:0.0368565;stroke-opacity:1;filter:url(#filter78)"
           id="path62"
           cx="67.73333"
           cy="45.297123"
           r="19.84375" />
      </g>
      <g
         inkscape:groupmode="layer"
         id="layer2"
         inkscape:label="sickle"
         transform="matrix(0.23944296,0,0,0.23944296,-4.0506363,-4.0995556)">
        <path
           id="path8"
           style="fill:#faf5e9;fill-opacity:1;stroke:none;stroke-width:0.25;stroke-opacity:1;filter:url(#filter4)"
           d="m 178.21178,50.61945 c 199.54658,-120.714511 438.44903,257.33266 55.73656,306.57612 l -8.85609,52.02952 h -46.88047 v -52.02952 l 15.88416,-33.21033 C 447.22218,297.16965 433.44943,87.620858 178.21178,50.61945 Z M 166.78967,409.2251 h 66.42066 v 159.04059 h -66.42066 z" />
        <path
           id="path23"
           style="display:inline;fill:#ffcc00;fill-opacity:1;stroke:none"
           d="m 281.56414,324.75961 c 25.00329,-8.08928 46.5842,-14.76438 67.88225,-31.21168 21.30512,-16.45438 38.59389,-41.53546 45.53766,-67.07615 6.93674,-25.54776 4.6245,-42.66682 -1.81018,-68.58935 -6.42051,-25.92254 -29.58533,-48.08327 -48.67722,-67.175161 -14.67953,-15.471488 -34.54216,-22.068783 -51.61879,-33.234013 15.40784,-2.227386 28.84287,6.017478 43.84061,12.416797 14.99774,6.385175 31.72081,19.332305 43.84062,31.423827 12.11981,12.09153 22.88905,28.57419 28.18529,43.84063 5.28207,15.26642 7.94079,27.48523 6.81649,43.84061 -1.13843,16.35539 -2.71528,28.19942 -8.03274,43.84062 -5.31035,15.64826 -15.16035,31.15512 -26.96905,43.84062 -11.80866,12.68548 -29.02672,26.55185 -43.8406,33.62999 -14.8139,7.06401 -28.4964,13.08147 -43.84064,16.92814 -15.34421,3.84668 -27.60542,6.09527 -43.1335,6.71753 10.64902,-2.3759 21.26977,-5.78414 31.8198,-9.19241 z M 410.25757,94.242805 c 7.31149,7.608475 13.64717,18.596915 18.13022,27.577175 4.49014,8.97318 8.25194,18.23629 10.50763,27.57718 2.2698,9.34085 3.45773,17.27459 3.53551,26.87004 0.0849,9.58835 0.42428,18.14438 -0.70711,27.57717 -1.14551,9.43281 -2.77891,17.33119 -5.19015,26.87005 -2.42539,9.53887 -6.2084,18.29993 -10.62074,27.57716 -4.40529,9.28431 -10.33791,18.2575 -16.97057,26.87008 -6.62559,8.61962 -16.06548,19.37471 -24.84773,26.16293 -8.78229,6.77409 -17.69889,13.14513 -26.87008,18.37064 -9.17114,5.23966 -18.04535,9.75807 -27.57715,13.35018 -9.5318,3.59209 -17.91101,7.24782 -27.57716,9.71564 -9.67321,2.47487 -16.94228,4.36992 -26.87005,5.65684 -9.93487,1.29402 -16.8928,3.38705 -27.57717,3.46484 -10.68438,0.0919 -16.51096,8.98735 -15.90992,19.44543 0.60815,10.46519 -1.81726,20.17378 6.68925,26.16296 8.49235,5.98919 3.43653,18.78075 4.62447,26.87005 1.18796,8.08931 -0.45962,20.00405 2e-5,27.57717 0.45957,7.57311 2.10012,24.85479 -8.13175,25.45585 -2.46073,-4.15778 -7.03571,-2.43952 -8.48527,-8.48531 -1.44958,-8.94489 2.65165,-21.6728 0.35355,-30.40558 -2.29103,-8.73983 4.53964,-24.1689 -1.06066,-31.11268 -6.07406,-2.51024 -18.19388,-0.51619 -24.74873,-0.35358 -6.55489,0.16262 -19.04239,-2.59506 -24.74875,0.35358 -4.90026,2.53852 -0.80611,15.62709 -1.76778,21.92033 -0.97579,6.29323 0.32524,16.914 10e-6,24.04161 -0.32526,7.12763 -0.099,16.67359 1e-5,24.04164 0.0919,7.36098 -0.57982,16.87159 -1e-5,24.04163 0.57983,7.17008 -1.45663,17.62111 1e-5,24.04164 1.44956,6.41345 -3.7406,19.97575 1.06065,24.04163 3.19614,2.70114 11.95011,-0.32527 16.26346,0.35359 4.31335,0.69298 11.639,0.3677 16.26346,0 4.62448,-0.36776 12.77741,1.68999 16.97056,-0.35353 0.42427,-0.21211 1.20209,-0.98994 1.41421,-1.41421 3.49311,-7.15593 -1.75362,-17.8191 0.35352,-25.45584 2.10718,-7.63675 -2.48194,-18.09488 -0.35352,-25.45586 1.21623,-3.2951 4.66689,-7.00034 8.48529,-7.07105 12.28951,-0.24042 6.77407,17.76253 8.13171,26.16296 1.34352,8.4004 -2.39,18.55446 -0.70709,28.28428 1.69705,9.72977 -8.22365,22.29505 -18.73833,21.56672 -10.51469,-0.71416 -18.27164,0.46671 -28.28427,10e-6 -10.00556,-0.45962 -19.46665,1.35058 -28.28428,-2.47487 l -7.07106,-7.07107 c -3.01229,-17.50793 -1.91627,-37.41301 -1.76778,-55.86143 0.13435,-18.44842 -0.83438,-38.26863 1e-5,-56.56856 0.83439,-18.2999 -6.80943,-44.93664 13.78858,-52.32588 -1.71119,-15.25938 1.06774,-29.04091 -0.35355,-44.54773 -1.42834,-15.49978 5.57906,-36.16851 21.56675,-41.28092 15.98769,-5.12651 29.05503,-4.4194 45.25484,-7.62259 16.20689,-3.21027 28.93481,-6.91552 44.54773,-13.42087 15.61291,-6.51953 31.36726,-15.86749 45.25484,-26.87007 13.88755,-11.00257 25.71746,-29.77625 33.26229,-44.44875 7.54483,-14.67246 0.93339,-33.27642 14.11384,-42.42638 3.19614,3.73351 10.8329,5.82654 8.16003,12.72791 -2.67287,6.90136 1.26572,9.7086 -1.4425,15.55634 -2.6941,5.84778 -1.49198,10.048 -4.21436,15.55636 -2.71528,5.50129 -3.81132,10.16112 -6.8448,15.55633 -3.04763,5.39524 -6.41345,10.13286 -9.89949,15.55637 -3.50018,5.4235 -9.19239,10.71972 -14.04314,15.55635 -4.85075,4.83659 -10.80458,11.07328 -16.26347,14.84925 -5.45885,3.77592 -10.05503,6.59022 -15.55633,9.99849 -5.50129,3.42237 -9.51766,5.75584 -15.55634,8.48526 -6.04579,2.73651 -8.63379,4.53256 -15.55638,7.07108 -6.92254,2.55266 -6.70336,2.30516 -15.55633,5.2043 -8.85297,2.88499 -21.97688,5.9397 -31.11269,7.74989 -9.13582,1.81017 -9.1924,0.79198 -16.26346,2.1496 -7.07107,1.34352 -9.47524,1.25866 -15.55635,2.12133 -6.08112,0.86267 -12.38851,3.23854 -15.08967,8.83884 -2.70114,5.60028 -4.07291,8.68325 -2.94155,15.55635 1.12429,6.86601 -2.71529,7.21248 -2e-5,15.55634 2.70823,8.35093 -4.06586,24.0487 0.35358,31.8198 0.98288,1.71829 9.70857,1.70413 12.72791,1.06068 3.0264,-0.6364 12.60771,1.88795 14.84925,-0.35351 3.7123,-3.71231 -1.06775,-14.26237 0.35359,-19.79901 1.41423,-5.54371 -1.18083,-14.26234 2.78601,-19.79897 3.981,-5.53665 10.80459,-13.9583 18.07365,-15.11794 7.26905,-1.17381 12.77034,-1.47078 19.79897,-2.20617 7.02158,-0.72831 12.89764,-1.75363 19.79901,-2.82842 6.89428,-1.06773 12.94711,-3.2739 19.799,-4.87905 6.85185,-1.59098 12.95418,-3.86081 19.79898,-6.19427 6.84479,-2.31931 12.96126,-5.43765 19.79899,-8.47112 6.83771,-3.04765 13.28654,-6.83774 19.799,-11.21473 6.51245,-4.37699 13.66836,-8.47821 19.79898,-14.14213 6.13767,-5.67101 13.42089,-13.68959 18.69591,-19.79899 5.28913,-6.10939 10.59247,-12.98249 13.92999,-19.79898 3.34461,-6.82358 7.07107,-12.88351 9.36209,-19.799 2.30516,-6.9155 4.18607,-12.94005 5.67099,-19.79899 1.47787,-6.866 2.18498,-12.84813 2.89917,-19.79901 0.70709,-6.95789 0.33232,-12.91882 0.0283,-19.79897 -0.30409,-6.88014 -0.38184,-13.03904 -2.14961,-19.79899 -1.76073,-6.76712 -3.10422,-13.13108 -6.0458,-19.80617 -2.94156,-6.66094 -5.52957,-13.44916 -9.87828,-19.79191 -4.34164,-6.34983 -8.46405,-13.85222 -14.128,-19.798993 -5.66394,-5.946813 -13.36433,-13.788622 -19.799,-18.483813 -6.42759,-4.702266 -13.13806,-10.323735 -19.79899,-14.057287 -6.66094,-3.733521 -13.20875,-6.873069 -19.79899,-9.984344 -6.5973,-3.118336 -13.08857,-5.154803 -19.79899,-7.297332 -6.70338,-2.135472 -13.16633,-3.889085 -19.79899,-5.444718 -6.62559,-1.548579 -13.25824,-2.029406 -19.79899,-3.040571 -6.54074,-1.011162 -13.12391,-0.933378 -19.79898,-0.73539 -6.66802,0.190922 -13.18754,-0.61518 -19.799,2e-6 -6.61852,0.608105 -13.1239,2.022324 -19.79899,2.800147 -6.67509,0.777813 -13.49159,3.478968 -19.79898,5.331574 -2.63043,0.141459 -5.57909,0.106085 -7.77818,2.121334 12.67842,1.011159 24.19012,0.714171 36.76956,2.474869 12.57235,1.753625 24.28911,3.288042 36.76954,7.000354 12.47337,3.705236 24.5366,7.735741 36.76955,13.477456 12.23297,5.741707 26.00739,14.863382 36.76955,23.716353 10.76218,8.852989 26.1771,23.362809 32.06023,35.355339 5.89019,11.98547 19.14138,26.84884 5.41643,36.06246 -10.53589,2.84255 -11.70261,-17.17563 -17.06955,-24.04163 -5.374,-6.85893 -13.99364,-21.92739 -22.52843,-28.28427 -8.53479,-6.35689 -18.84441,-16.426093 -28.2843,-21.227356 -9.43281,-4.794186 -18.71005,-9.531802 -28.28426,-13.039046 -9.57423,-3.507252 -18.58984,-6.597309 -28.28428,-8.485285 -9.69443,-1.887973 -18.44841,-4.560841 -28.28427,-4.978027 -9.83584,-0.4172 -18.29992,-1.909184 -28.28426,-1.414213 -9.99143,0.487898 -21.56676,-0.820251 -23.61737,-13.081476 -2.03647,-12.261235 9.76514,-18.377709 19.36766,-20.781864 9.61664,-2.404172 18.63226,-5.112382 28.29134,-6.441751 9.66615,-1.322288 18.48376,-2.644572 28.28426,-2.828421 9.80049,-0.18385 18.4555,-0.339415 28.28427,0.678817 9.82879,1.018229 18.58276,2.008185 28.28427,4.242639 9.70151,2.234455 18.75248,4.666908 28.28428,8.273154 9.5318,3.592101 19.00703,7.749887 28.28426,12.71378 9.27726,4.978026 19.56565,12.777416 28.28429,18.28579 l 0.70709,0.707094 c 1.64757,3.910306 6.6751,9.079249 10.6066,10.6066 l 4.24264,4.242643 c 1.26573,3.938591 6.06698,7.353912 9.19239,10.606597 z" />
      </g>
      <g
         inkscape:groupmode="layer"
         id="layer1-7"
         inkscape:label="hammer"
         transform="matrix(0.19489058,0,0,0.19489058,-36.45894,-0.47837056)">
        <path
           id="path29"
           style="fill:#faf5e9;fill-opacity:1;stroke-width:0.25;filter:url(#filter2)"
           d="m 315.99016,666.42066 61.99262,1.29152 -14.51424,17.21598 h -26.33168 l -18.87358,-9.89341 z m 46.06396,-533.39483 -17.65068,138.19188 20.23371,145.51046 9.47109,-18.94219 -8.17958,-124.84625 3.01353,-99.01599 3.44403,-32.28782 z M 307.95867,16.36774 c 5.24529,-2.684306 10.17786,-4.274093 14.84925,-4.94975 110.46938,14.882713 127.3874,58.847196 159.09903,105.35891 l 3.65191,11.5672 C 426.75705,72.493638 371.45809,41.88814 374.42671,118.19112 l -37.47665,0.7071 c -36.45425,-0.44769 -13.22771,-46.679124 -40.30508,-65.76093 -0.97584,-16.503894 3.15739,-27.226881 11.31369,-36.76955 z m -91.21682,26.16295 c 2.76665,-5.358865 6.37668,-9.780646 11.31376,-12.72792 19.25728,-6.010131 43.67218,15.024597 74.01803,-4.924372 -4.96071,11.637988 -6.09484,13.694925 -5.42866,28.258892 4.4794,10.13536 17.19967,21.519336 13.43503,30.4056 -23.66386,-7.255775 -35.41034,-5.426228 -43.84063,-1.41422 -7.03555,1.821873 -13.60314,4.57965 -19.91585,7.84721 -14.68749,2.638939 -38.72169,-12.477106 -29.58168,-47.44519 z" />
        <path
           id="path22"
           d="m 481.19984,117.48401 c -0.0356,-0.30403 0.70711,-0.70711 0.70711,-0.70711 C 454.35099,55.986927 394.19035,3.3640434 322.80792,11.417988 c -1.35058,4.518415 -12.02082,4.186077 -14.11386,11.313709 -2.07889,7.127637 -5.72756,10.253051 -6.39224,17.677669 70.66825,-15.372499 142.49616,15.711914 178.89802,77.074644 z m -18.38478,-1e-5 c -5.18309,-5.18308 -10.37325,-10.37325 -15.55634,-15.55634 2.05767,-1.20915 3.64866,0.77781 4.94974,2.12132 10.47225,10.03384 22.69105,19.21209 31.1127,31.1127 8.51356,-8.66914 -7.38927,-17.07664 -13.43504,-24.74874 -6.04575,-7.67211 -16.48973,-15.372503 -24.04163,-21.213205 -7.55189,-5.840699 -15.86748,-12.388511 -24.04162,-16.942277 -8.17415,-4.539625 -15.82505,-10.762168 -24.74874,-13.10976 -8.91661,-2.354661 -18.99289,2.701148 -20.88794,10.960152 -1.89503,8.259013 -3.06885,15.598777 -2.80013,24.041634 0.26163,8.449926 -0.84146,16.015966 1.06065,24.041636 8.11052,-9.43988 -3.48605,-40.029318 15.55636,-40.658646 19.04238,-0.629324 29.5005,15.372503 45.25484,23.688076 15.75433,8.31558 28.74387,26.86299 40.30508,40.30509 7.44583,-7.04986 -6.78823,-18.10193 -12.72793,-24.04164 z M 245.02618,90.613953 c 2.35466,-1.152585 0.86973,-0.09192 0.7071,-2.121324 -0.80614,-10.281334 11.05915,-13.024906 19.09188,-14.962378 8.03274,-1.937474 17.52918,-2.920353 25.45585,-1.65463 7.9196,1.25865 20.99399,1.94454 19.799,11.667265 -12.74915,-8.506501 -30.92886,-8.867123 -44.54774,-2.12133 0.37476,0.02123 0.70711,0.70711 0.70711,0.70711 14.70782,-5.78413 32.32891,-3.464822 44.54773,6.363966 -0.31113,11.144001 -2.64458,28.581258 11.31369,31.112688 4.6952,0.48085 10.20356,-0.99702 14.84926,-0.7071 -15.71192,-0.60811 -23.73051,-14.38255 -20.85966,-29.698484 2.86379,-15.323003 -5.22551,-29.875262 -19.44542,-36.062442 0.69296,-12.968341 3.48602,-26.452869 11.31369,-36.769559 -9.83585,9.666151 -25.56897,18.752473 -40.30509,16.617012 -14.73609,-2.149603 -25.01036,-10.005561 -39.59797,-3.181981 4.48306,1.499067 10.31669,-1.774836 15.55635,0 -3.29512,1.414215 -8.39337,5.324513 -4.94974,9.19239 -3.86789,2.906207 -9.10755,1.66877 -13.43504,3.535533 3.38705,2.425378 8.55599,-2.347596 12.02082,0.707106 -1.78191,4.992176 -2.14253,12.112739 2.82843,15.55635 -6.26498,-0.18385 -15.22402,-3.570891 -21.92031,0.707102 -3.29512,-5.006312 -0.86974,-11.476338 -1.41427,-16.970553 -4.09415,13.13097 -2.82136,19.26866 1.15966,33.234018 3.98807,13.958288 13.22289,16.758429 27.12462,14.849245 m 55.15432,-63.639612 c -4.62448,8.061016 -9.04389,17.288762 -8.48528,26.870058 -10.74803,7.933734 -20.97987,6.639732 -33.94113,8.838832 -12.96125,2.199105 -23.58201,-6.653876 -15.55635,-20.152543 7.39635,4.030513 17.16855,5.176021 25.45586,2.828431 -8.40751,-3.42947 -13.72495,3.698169 -22.62742,-3.153699 -8.90248,-6.851863 2.18496,-14.714889 9.89949,-8.061016 7.70746,6.660945 14.34013,1.499066 22.62742,2.404164 8.28729,0.905095 15.87456,-6.936717 22.62741,-9.574227 z m 48.79042,98.287845 c -9.91364,0.77779 -17.20391,0.44547 -27.57717,0.35354 -10.37326,-0.0778 -5.8407,13.23704 -5.23259,21.56676 0.62227,8.32972 1.41423,18.21507 2.05061,26.87006 0.64347,8.64791 1.04653,18.04537 1.41421,26.87007 0.37478,8.83175 1.01118,17.8403 0.70711,26.87005 -0.31112,9.02267 0.34648,17.92516 -0.35355,26.87006 10e-6,4.2285 0.32527,8.54185 10e-6,12.72792 -4.12244,52.53096 -11.17936,105.52154 -9.54595,159.09903 1.63341,53.57747 0.43134,105.3377 4.59618,158.39191 0.54445,6.97916 0.54449,14.30477 2e-5,21.2132 -1.0536,13.37139 0.19798,26.31852 -1.76777,39.59799 -1.97283,13.28652 -6.83065,30.49045 8.83884,35.80788 15.66948,5.31745 22.39407,9.94899 38.89086,6.95794 16.48973,-2.984 21.19199,-19.09896 19.44544,-33.57344 -1.73948,-14.4674 -0.32526,-25.96496 -2.14961,-39.59798 -1.82433,-13.63302 0.0354,-25.2932 -1.03238,-38.89087 -1.47077,-18.72418 -1.4637,-39.32221 2e-5,-57.98276 0.93338,-11.90767 0.19799,-24.21133 1.06065,-36.06245 0.8556,-11.85817 0.28284,-23.4335 0.70711,-35.35533 0.42427,-11.92182 0.0141,-24.32447 -0.70712,-36.06245 -0.72123,-11.73798 -0.42425,-23.64565 -1.48492,-35.35536 -1.07485,-11.70967 -1.92332,-23.54663 -2.75771,-35.35531 -0.84146,-11.81577 -2.16372,-24.26792 -2.82842,-36.06245 -0.67883,-11.79455 -0.74247,-23.51129 -0.7071,-35.35535 0.0353,-11.84403 0.0636,-23.62443 -1e-5,-35.35533 -0.0566,-11.72383 1.90918,-24.53661 1.48493,-36.06245 -0.4172,-11.5329 4.44769,-24.45882 3.46481,-35.35533 -0.98283,-10.89652 4.65984,-25.92961 -1.06065,-35.35534 -2.52438,-2.65165 -9.10046,-0.82732 -12.72792,-1.06066 -3.62747,-0.24749 -9.02269,-0.35357 -12.72793,-0.35355 m 15.55635,19.79898 c 5.0346,6.23669 0.66467,18.35651 1.13137,26.16296 0.47376,7.81353 -1.57651,17.93932 -2.12132,26.16295 -0.53739,8.21658 0.0778,17.68473 -0.77781,26.16295 -0.86268,8.48527 -1.08895,18.17265 -1.76778,26.87006 1e-5,11.20056 0,22.81125 2e-5,33.94112 3.11125,39.66869 8.29434,79.27374 7.07106,118.79394 -2.58802,-43.45878 -11.03794,-84.7609 -11.66727,-128.69343 -0.62932,-43.93254 6.30739,-85.5175 7.42462,-128.69344 -0.38184,-2.57387 -1.67585,-5.19724 -0.7071,-7.77818 1.20915,1.93041 1.99405,4.79419 1.41421,7.07107 M 318.56528,669.0273 c 16.27759,8.86713 37.90799,12.97539 54.44722,2.12132 -11.90769,17.84738 -42.81531,13.07441 -54.44722,-2.12132 z"
           style="display:inline;fill:#ffcc00;fill-opacity:1" />
      </g>
    </g>
  </g>
</svg>
